<svg width="23" height="24" viewBox="0 0 23 24" fill="none" xmlns="http://www.w3.org/2000/svg">
<path d="M5.1773 12H5.18668H5.1773ZM11.7436 12H11.753H11.7436ZM18.3099 12H18.3193H18.3099ZM6.11534 12C6.11534 12.2652 6.01651 12.5196 5.8406 12.7071C5.66468 12.8946 5.42608 13 5.1773 13C4.92852 13 4.68992 12.8946 4.514 12.7071C4.33809 12.5196 4.23926 12.2652 4.23926 12C4.23926 11.7348 4.33809 11.4804 4.514 11.2929C4.68992 11.1054 4.92852 11 5.1773 11C5.42608 11 5.66468 11.1054 5.8406 11.2929C6.01651 11.4804 6.11534 11.7348 6.11534 12V12ZM12.6816 12C12.6816 12.2652 12.5828 12.5196 12.4069 12.7071C12.231 12.8946 11.9924 13 11.7436 13C11.4948 13 11.2562 12.8946 11.0803 12.7071C10.9044 12.5196 10.8056 12.2652 10.8056 12C10.8056 11.7348 10.9044 11.4804 11.0803 11.2929C11.2562 11.1054 11.4948 11 11.7436 11C11.9924 11 12.231 11.1054 12.4069 11.2929C12.5828 11.4804 12.6816 11.7348 12.6816 12V12ZM19.2479 12C19.2479 12.2652 19.1491 12.5196 18.9732 12.7071C18.7973 12.8946 18.5587 13 18.3099 13C18.0611 13 17.8225 12.8946 17.6466 12.7071C17.4707 12.5196 17.3718 12.2652 17.3718 12C17.3718 11.7348 17.4707 11.4804 17.6466 11.2929C17.8225 11.1054 18.0611 11 18.3099 11C18.5587 11 18.7973 11.1054 18.9732 11.2929C19.1491 11.4804 19.2479 11.7348 19.2479 12V12Z" stroke="white" stroke-width="1.5" stroke-linecap="round" stroke-linejoin="round"/>
</svg>
